# xmcd
#
# Track frame offsets: 
#        150
#        21919
#        36425
#        39823
#        57125
#        76311
#        106051
#        126507
#        140537
#        162168
#        169778
#        187864
#        204136
#        218222
#
# Disc length: 3363 seconds
#
# Revision: 0
# Processed by: cddbd v1.5.1PL0 Copyright (c) Steve Scherf et al.
# Submitted via: ExactAudioCopy v0.95a5
#
DISCID=b40d210e
DTITLE=Bailey - Bailey
DYEAR=2005
DGENRE=Country
TTITLE0=Reach Out For Today
TTITLE1=Better Man
TTITLE2=Untitled
TTITLE3=Unsteady Beat
TTITLE4=Autumn Leaves
TTITLE5=These Are Days.
TTITLE6=Behind Disguise
TTITLE7=Suicide Bullet Train
TTITLE8=Aching and Waiting
TTITLE9=Survive
TTITLE10=More Than I
TTITLE11=Wounds of Craving
TTITLE12=Be Here To Love Me
TTITLE13=Price To Pay
EXTD=
EXTT0=
EXTT1=
EXTT2=
EXTT3=
EXTT4=
EXTT5=
EXTT6=
EXTT7=
EXTT8=
EXTT9=
EXTT10=
EXTT11=
EXTT12=
EXTT13=
PLAYORDER=
